<?xml version="1.0" standalone="no"?>
<!DOCTYPE svg PUBLIC "-//W3C//DTD SVG 20010904//EN"
 "http://www.w3.org/TR/2001/REC-SVG-20010904/DTD/svg10.dtd">
<svg version="1.0" xmlns="http://www.w3.org/2000/svg"
 width="1207.000000pt" height="207.000000pt" viewBox="0 0 1207.000000 207.000000"
 preserveAspectRatio="xMidYMid meet">

<g transform="translate(0.000000,207.000000) scale(0.100000,-0.100000)"
fill="#000000" stroke="none">
<path d="M624 1939 c-94 -27 -181 -126 -203 -231 -7 -31 -11 -277 -11 -692 0
-704 0 -701 59 -783 34 -47 98 -94 156 -114 33 -11 166 -14 730 -14 684 0 690
0 736 21 67 31 124 87 156 152 l28 57 0 690 0 690 -34 69 c-24 50 -45 76 -78
99 -96 69 -64 66 -823 66 -379 -1 -699 -5 -716 -10z m1148 -579 c28 -11 55
-25 60 -32 4 -7 8 -39 8 -71 0 -72 -11 -77 -84 -43 -76 36 -166 37 -201 1 -31
-30 -32 -73 -4 -109 13 -16 65 -48 123 -75 167 -78 215 -137 216 -262 0 -111
-61 -201 -167 -245 -52 -22 -187 -30 -254 -14 -70 16 -126 47 -133 74 -10 38
-6 92 8 111 13 19 15 19 70 -8 31 -15 80 -32 109 -38 122 -25 213 47 171 136
-16 35 -28 43 -154 105 -151 75 -196 139 -188 270 3 57 9 77 33 111 58 82 118
108 247 109 64 0 102 -5 140 -20z m-500 1 c21 -1 33 -66 19 -104 l-11 -27
-110 0 -110 0 0 -343 c0 -253 -3 -346 -12 -355 -12 -12 -124 -17 -152 -6 -14
5 -16 46 -16 355 l0 348 -112 3 c-111 3 -113 3 -122 29 -14 41 0 97 27 101 17
2 522 1 599 -1z"/>
</g>
</svg>
